GIL02_slow1_ik
nRows=3
nColumns=375

# SIMM Motion File Header:
name GIL02_slow1_ik
datacolumns 375
datarows 3
otherdata 1
range 0.77500000 0.79167000
endheader
time	pelvis_tx	pelvis_ty	pelvis_tz	pelvis_tilt	pelvis_list	pelvis_rotation	hip_flexion_r	hip_adduction_r	hip_rotation_r	knee_angle_r	ankle_angle_r	hip_flexion_l	hip_adduction_l	hip_rotation_l	knee_angle_l	ankle_angle_l	lumbar_extension	lumbar_bending	lumbar_rotation	subtalar_angle_r	mtp_angle_r	subtalar_angle_l	mtp_angle_l	asis_r_px	asis_r_py	asis_r_pz	asis_l_px	asis_l_py	asis_l_pz	midasis_px	midasis_py	midasis_pz	psis_r_px	psis_r_py	psis_r_pz	psis_l_px	psis_l_py	psis_l_pz	hip_r_px	hip_r_py	hip_r_pz	hip_l_px	hip_l_py	hip_l_pz	midhip_px	midhip_py	midhip_pz	epicondLat_r_px	epicondLat_r_py	epicondLat_r_pz	epicondMed_r_px	epicondMed_r_py	epicondMed_r_pz	thighwand_r_px	thighwand_r_py	thighwand_r_pz	upperleg1_r_px	upperleg1_r_py	upperleg1_r_pz	upperleg2_r_px	upperleg2_r_py	upperleg2_r_pz	malleolusLat_r_px	malleolusLat_r_py	malleolusLat_r_pz	malleolusMedv_r_px	malleolusMedv_r_py	malleolusMedv_r_pz	shankwand_r_px	shankwand_r_py	shankwand_r_pz	lowerleg1_r_px	lowerleg1_r_py	lowerleg1_r_pz	knee_r_px	knee_r_py	knee_r_pz	ankle_r_px	ankle_r_py	ankle_r_pz	toe_r_px	toe_r_py	toe_r_pz	epicondLat_l_px	epicondLat_l_py	epicondLat_l_pz	epicondMed_l_px	epicondMed_l_py	epicondMed_l_pz	thighwand_l_px	thighwand_l_py	thighwand_l_pz	upperleg1_l_px	upperleg1_l_py	upperleg1_l_pz	upperleg2_l_px	upperleg2_l_py	upperleg2_l_pz	malleolusLat_l_px	malleolusLat_l_py	malleolusLat_l_pz	malleolusMedv_l_px	malleolusMedv_l_py	malleolusMedv_l_pz	shankwand_l_px	shankwand_l_py	shankwand_l_pz	lowerleg1_l_px	lowerleg1_l_py	lowerleg1_l_pz	knee_l_px	knee_l_py	knee_l_pz	ankle_l_px	ankle_l_py	ankle_l_pz	toe_l_px	toe_l_py	toe_l_pz	subclavicle_r_px	subclavicle_r_py	subclavicle_r_pz	subclavicle_l_px	subclavicle_l_py	subclavicle_l_pz	neck_px	neck_py	neck_pz	sternalnotch_px	sternalnotch_py	sternalnotch_pz	xyphoidprocess_px	xyphoidprocess_py	xyphoidprocess_pz	midhip_tx	midhip_ty	midhip_tz	hip_r_tx	hip_r_ty	hip_r_tz	hip_l_tx	hip_l_ty	hip_l_tz	knee_r_tx	knee_r_ty	knee_r_tz	knee_l_tx	knee_l_ty	knee_l_tz	ankle_r_tx	ankle_r_ty	ankle_r_tz	ankle_l_tx	ankle_l_ty	ankle_l_tz	midasis_tx	midasis_ty	midasis_tz	asis_r_tx	asis_r_ty	asis_r_tz	asis_l_tx	asis_l_ty	asis_l_tz	psis_r_tx	psis_r_ty	psis_r_tz	psis_l_tx	psis_l_ty	psis_l_tz	epicondLat_r_tx	epicondLat_r_ty	epicondLat_r_tz	epicondLat_l_tx	epicondLat_l_ty	epicondLat_l_tz	epicondMed_r_tx	epicondMed_r_ty	epicondMed_r_tz	epicondMed_l_tx	epicondMed_l_ty	epicondMed_l_tz	malleolusLat_r_tx	malleolusLat_r_ty	malleolusLat_r_tz	malleolusLat_l_tx	malleolusLat_l_ty	malleolusLat_l_tz	malleolusMedv_r_tx	malleolusMedv_r_ty	malleolusMedv_r_tz	malleolusMedv_l_tx	malleolusMedv_l_ty	malleolusMedv_l_tz	neck_tx	neck_ty	neck_tz	subclavicle_r_tx	subclavicle_r_ty	subclavicle_r_tz	subclavicle_l_tx	subclavicle_l_ty	subclavicle_l_tz	sternalnotch_tx	sternalnotch_ty	sternalnotch_tz	xyphoidprocess_tx	xyphoidprocess_ty	xyphoidprocess_tz	thighwand_r_tx	thighwand_r_ty	thighwand_r_tz	thighwand_l_tx	thighwand_l_ty	thighwand_l_tz	upperleg1_r_tx	upperleg1_r_ty	upperleg1_r_tz	upperleg1_l_tx	upperleg1_l_ty	upperleg1_l_tz	upperleg2_r_tx	upperleg2_r_ty	upperleg2_r_tz	upperleg2_l_tx	upperleg2_l_ty	upperleg2_l_tz	shankwand_r_tx	shankwand_r_ty	shankwand_r_tz	shankwand_l_tx	shankwand_l_ty	shankwand_l_tz	lowerleg1_r_tx	lowerleg1_r_ty	lowerleg1_r_tz	lowerleg1_l_tx	lowerleg1_l_ty	lowerleg1_l_tz	toe_r_tx	toe_r_ty	toe_r_tz	toe_l_tx	toe_l_ty	toe_l_tz	ground_force_vx	ground_force_vy	ground_force_vz	ground_force_px	ground_force_py	ground_force_pz	ground_force_vx	ground_force_vy	ground_force_vz	ground_force_px	ground_force_py	ground_force_pz	ground_torque_x	ground_torque_y	ground_torque_z	ground_torque_x	ground_torque_y	ground_torque_z	ground_marker_px	ground_marker_py	ground_marker_pz	ground_marker_px	ground_marker_py	ground_marker_pz	ground_marker_px	ground_marker_py	ground_marker_pz	ground_marker_px	ground_marker_py	ground_marker_pz	ground_marker_px	ground_marker_py	ground_marker_pz	ground_marker_px	ground_marker_py	ground_marker_pz	ground_marker_px	ground_marker_py	ground_marker_pz	ground_marker_px	ground_marker_py	ground_marker_pz	ground_marker_px	ground_marker_py	ground_marker_pz	ground_marker_px	ground_marker_py	ground_marker_pz	ground_marker_px	ground_marker_py	ground_marker_pz	ground_marker_px	ground_marker_py	ground_marker_pz	ground_marker_px	ground_marker_py	ground_marker_pz	ground_marker_px	ground_marker_py	ground_marker_pz	ground_marker_px	ground_marker_py	ground_marker_pz	ground_marker_px	ground_marker_py	ground_marker_pz	ground_marker_px	ground_marker_py	ground_marker_pz	ground_marker_px	ground_marker_py	ground_marker_pz	ground_marker_px	ground_marker_py	ground_marker_pz	ground_marker_px	ground_marker_py	ground_marker_pz	ground_marker_px	ground_marker_py	ground_marker_pz	ground_marker_px	ground_marker_py	ground_marker_pz	ground_marker_px	ground_marker_py	ground_marker_pz	ground_marker_px	ground_marker_py	ground_marker_pz	ground_marker_px	ground_marker_py	ground_marker_pz	ground_marker_px	ground_marker_py	ground_marker_pz	ground_marker_px	ground_marker_py	ground_marker_pz	ground_marker_px	ground_marker_py	ground_marker_pz	ground_marker_px	ground_marker_py	ground_marker_pz	ground_marker_px	ground_marker_py	ground_marker_pz	ground_marker_px	ground_marker_py	ground_marker_pz	ground_marker_px	ground_marker_py	ground_marker_pz	ground_marker_px	ground_marker_py	ground_marker_pz	ground_marker_px	ground_marker_py	ground_marker_pz	ground_marker_px	ground_marker_py	ground_marker_pz	ground_marker_px	ground_marker_py	ground_marker_pz	ground_marker_px	ground_marker_py	ground_marker_pz
      0.77500000	      1.16219930	      0.93400331	     -0.19448205	      0.33350274	      7.23942197	     -3.36503508	    -13.20626048	     -6.57461304	      9.79608984	    -18.52140011	     10.04169780	     14.25647614	      8.50002994	      4.32481792	     -3.16907346	     -9.88861928	     -2.30199446	     -7.19832706	      8.10278021	      0.00000000	      0.00000000	      0.00000000	      0.00000000	      1.20167704	      0.91933810	     -0.07557771	      1.21768336	      0.95577854	     -0.31038814	      1.17520171	      0.93398265	     -0.19372364	      1.02168620	      0.98512820	     -0.16561978	      1.03218612	      0.99481184	     -0.25040057	      1.09238942	      0.86330581	     -0.12913138	      1.10139494	      0.88290314	     -0.28299119	      1.09689218	      0.87310448	     -0.20606128	      1.02736284	      0.43860566	     -0.06684210	      0.98543142	      0.45658663	     -0.16922268	      1.11302716	      0.53440137	     -0.00393902	      1.12912224	      0.59820672	     -0.07382167	      1.10033020	      0.51562207	     -0.09377987	      0.77146387	      0.10783513	     -0.08278596	      0.78875804	      0.11377305	     -0.15228396	      0.87224044	      0.20197436	      0.00007191	      0.83545519	      0.18695214	     -0.07039843	      0.99528953	      0.45404760	     -0.13806469	      0.78762120	      0.11505009	     -0.12824196	      0.88552997	      0.03246193	     -0.11265601	      1.22952629	      0.46116454	     -0.33251570	      1.20147146	      0.46441318	     -0.22551494	      1.34007024	      0.59659459	     -0.25117314	      1.26941034	      0.63906654	     -0.30400284	      1.26997453	      0.55210880	     -0.30378532	      1.25659574	      0.06612247	     -0.29752189	      1.27029325	      0.08425831	     -0.23442483	      1.27119053	      0.20582929	     -0.38265503	      1.25193471	      0.16694380	     -0.31384737	      1.19786107	      0.47519160	     -0.26703148	      1.27217776	      0.08471809	     -0.25480889	      1.39171348	      0.05056030	     -0.27715776	      1.12332376	      1.33641241	     -0.13648077	      1.12687702	      1.34075582	     -0.24466580	      0.99136094	      1.40488208	     -0.18285307	      1.10754223	      1.34544839	     -0.18797846	      1.19849479	      1.18699044	     -0.20308969	      1.09748000	      0.88235400	     -0.19967900	      1.08814600	      0.85084300	     -0.13564100	      1.09886900	      0.86738600	     -0.28477300	      0.99776700	      0.45619900	     -0.13174600	      1.20099700	      0.46001800	     -0.26534100	      0.78147700	      0.10984500	     -0.15189800	      1.27380800	      0.07123400	     -0.23873000	      1.17885300	      0.94562900	     -0.19447400	      1.17025000	      0.93235700	     -0.07482200	      1.18745600	      0.95890200	     -0.31412600	      0.98788700	      0.98406200	     -0.17080300	      0.99939300	      0.98748300	     -0.25696700	      1.00520900	      0.45506700	     -0.07373300	      1.21131300	      0.45988200	     -0.32241600	      0.99428700	      0.45376500	     -0.18326500	      1.17667300	      0.44013700	     -0.21717700	      0.76598700	      0.11741900	     -0.11580600	      1.25794300	      0.06585300	     -0.27394900	      0.79649600	      0.12106700	     -0.17916800	      1.27714600	      0.08704100	     -0.21376300	      0.99763100	      1.41428800	     -0.18396700	      1.12013200	      1.33059000	     -0.13680500	      1.12205100	      1.33352800	     -0.24195000	      1.10441000	      1.34106600	     -0.18658900	      1.17470400	      1.17237800	     -0.20169800	      1.07221300	      0.54423800	      0.00369400	      1.32249300	      0.56906900	     -0.25777700	      1.09630700	      0.60864600	     -0.05919200	      1.25028500	      0.60781000	     -0.30652800	      1.08175300	      0.52378600	     -0.08409200	      1.24508800	      0.51972000	     -0.30308000	      0.84237500	      0.22452600	     -0.02079700	      1.25912200	      0.20301800	     -0.36701300	      0.82244000	      0.20058400	     -0.09685100	      1.24866400	      0.16722400	     -0.29537600	      0.87827900	      0.04043600	     -0.13503700	      1.39659700	      0.04180400	     -0.26192000	     66.65653613	    369.73040203	     -4.90421085	      0.88284924	      0.00000000	     -0.13059486	    -24.77787224	    300.01993448	      3.27057789	      1.28360010	      0.00000000	     -0.23446541	      0.00000000	      0.69200171	      0.00000000	      0.00000000	      1.07267700	      0.00000000	      1.09748006	      0.88235378	     -0.19967936	      1.08814621	      0.85084343	     -0.13564090	      1.09886873	      0.86738616	     -0.28477290	      0.99776673	      0.45619938	     -0.13174649	      1.20099711	      0.46001810	     -0.26534075	      0.78147745	      0.10984504	     -0.15189819	      1.27380800	      0.07123447	     -0.23873013	      1.17885327	      0.94562936	     -0.19447377	      1.17025030	      0.93235677	     -0.07482196	      1.18745613	      0.95890200	     -0.31412560	      0.98788708	      0.98406160	     -0.17080304	      0.99939334	      0.98748296	     -0.25696662	      1.00520921	      0.45506743	     -0.07373290	      1.21131325	      0.45988181	     -0.32241580	      0.99428666	      0.45376527	     -0.18326475	      1.17667305	      0.44013709	     -0.21717750	      0.76598668	      0.11741865	     -0.11580558	      1.25794327	      0.06585279	     -0.27394873	      0.79649609	      0.12106744	     -0.17916772	      1.27714586	      0.08704071	     -0.21376312	      0.99763083	      1.41428781	     -0.18396729	      1.12013221	      1.33058977	     -0.13680513	      1.12205088	      1.33352828	     -0.24194983	      1.10440993	      1.34106600	     -0.18658890	      1.17470419	      1.17237759	     -0.20169786	      1.07221282	      0.54423779	      0.00369376	      1.32249260	      0.56906867	     -0.25777704	      1.09630740	      0.60864592	     -0.05919193	      1.25028527	      0.60780978	     -0.30652827	      1.08175337	      0.52378625	     -0.08409157	      1.24508846	      0.51972044	     -0.30307987	      0.84237456	      0.22452627	     -0.02079652	      1.25912166	      0.20301774	     -0.36701348	      0.82243997	      0.20058405	     -0.09685126	      1.24866378	      0.16722381	     -0.29537615	      0.87827885	      0.04043553	     -0.13503732	      1.39659655	      0.04180351	     -0.26191995
      0.78333000	      1.16982870	      0.93517266	     -0.19585932	      0.30000326	      7.41829465	     -3.32461272	    -12.80624716	     -6.96491014	      9.24299947	    -19.92619951	      8.67581831	     13.77877661	      8.84088071	      5.20290684	     -3.16788018	     -9.35466906	     -2.13727985	     -7.36056496	      7.96442557	      0.00000000	      0.00000000	      0.00000000	      0.00000000	      1.20938432	      0.92011728	     -0.07702965	      1.22524053	      0.95728182	     -0.31173675	      1.18283165	      0.93514323	     -0.19511031	      1.02936168	      0.98627666	     -0.16673695	      1.03980567	      0.99621943	     -0.25149465	      1.10003061	      0.86430620	     -0.13067930	      1.10893564	      0.88437875	     -0.28448369	      1.10448312	      0.87434248	     -0.20758149	      1.03705967	      0.43960496	     -0.06631974	      0.99584782	      0.45671031	     -0.16914160	      1.12163619	      0.53629800	     -0.00331765	      1.13791018	      0.59977493	     -0.07345747	      1.10977730	      0.51689772	     -0.09314108	      0.77525214	      0.11263768	     -0.08101538	      0.79311959	      0.11761048	     -0.15044408	      0.87717142	      0.20569618	      0.00166539	      0.84059333	      0.19068875	     -0.06891583	      1.00573282	      0.45418640	     -0.13793508	      0.79184438	      0.11913247	     -0.12642329	      0.88616286	      0.03265450	     -0.10982703	      1.23412764	      0.46161662	     -0.33278387	      1.20455085	      0.46495888	     -0.22619666	      1.34464344	      0.59597167	     -0.24964032	      1.27512749	      0.63912697	     -0.30342524	      1.27493785	      0.55216739	     -0.30333157	      1.25728332	      0.06630784	     -0.29799917	      1.27021868	      0.08423710	     -0.23468261	      1.27431550	      0.20600159	     -0.38269992	      1.25372825	      0.16718823	     -0.31423788	      1.20163680	      0.47582600	     -0.26774485	      1.27240292	      0.08470890	     -0.25503645	      1.39223038	      0.05061962	     -0.27587673	      1.13017059	      1.33773335	     -0.13743934	      1.13392511	      1.34208801	     -0.24561712	      0.99814845	      1.40591478	     -0.18406680	      1.11446965	      1.34673632	     -0.18896743	      1.20579897	      1.18847881	     -0.20390579	      1.10516900	      0.88365800	     -0.20140900	      1.09590400	      0.85191200	     -0.13713300	      1.10659400	      0.86894100	     -0.28621300	      1.00786800	      0.45627300	     -0.13151500	      1.20497000	      0.46060000	     -0.26612200	      0.78556300	      0.11380600	     -0.15049700	      1.27387200	      0.07121300	     -0.23854100	      1.18663500	      0.94685300	     -0.19567800	      1.17806400	      0.93319900	     -0.07614300	      1.19520700	      0.96050700	     -0.31521300	      0.99565000	      0.98522700	     -0.17173800	      1.00708700	      0.98908100	     -0.25813100	      1.01484600	      0.45554500	     -0.07343700	      1.21614300	      0.46049200	     -0.32303600	      1.00550800	      0.45263500	     -0.18301300	      1.17981500	      0.44108700	     -0.21808500	      0.76976300	      0.12207700	     -0.11469300	      1.25835100	      0.06596000	     -0.27393200	      0.80095900	      0.12500300	     -0.17778400	      1.27725300	      0.08698400	     -0.21367600	      1.00396400	      1.41556600	     -0.18500700	      1.12704300	      1.33186300	     -0.13811900	      1.12954200	      1.33459300	     -0.24335300	      1.11159000	      1.34236900	     -0.18788800	      1.18233900	      1.17364600	     -0.20243000	      1.08057000	      0.54495500	      0.00413500	      1.32764800	      0.56873500	     -0.25646200	      1.10533200	      0.60914900	     -0.05884200	      1.25643100	      0.60786300	     -0.30556000	      1.09133200	      0.52359600	     -0.08332200	      1.25017100	      0.52085400	     -0.30276300	      0.84703800	      0.22903700	     -0.02001600	      1.26184900	      0.20305900	     -0.36719700	      0.82762800	      0.20469000	     -0.09573000	      1.25027900	      0.16711200	     -0.29521900	      0.87942900	      0.04051000	     -0.13481400	      1.39702600	      0.04152900	     -0.26156100	     60.31692783	    329.06129619	     -2.25747943	      0.88346753	      0.00000000	     -0.13065930	    -25.16561829	    314.51184039	      4.43102348	      1.28507397	      0.00000000	     -0.23485660	      0.00000000	      0.64813776	      0.00000000	      0.00000000	      1.32750537	      0.00000000	      1.10516918	      0.88365757	     -0.20140913	      1.09590423	      0.85191202	     -0.13713306	      1.10659409	      0.86894071	     -0.28621268	      1.00786793	      0.45627302	     -0.13151468	      1.20497048	      0.46060017	     -0.26612240	      0.78556293	      0.11380612	     -0.15049730	      1.27387202	      0.07121305	     -0.23854148	      1.18663526	      0.94685304	     -0.19567803	      1.17806375	      0.93319911	     -0.07614268	      1.19520664	      0.96050704	     -0.31521335	      0.99564976	      0.98522699	     -0.17173846	      1.00708663	      0.98908097	     -0.25813141	      1.01484585	      0.45554507	     -0.07343689	      1.21614301	      0.46049169	     -0.32303604	      1.00550795	      0.45263493	     -0.18301338	      1.17981505	      0.44108707	     -0.21808498	      0.76976329	      0.12207748	     -0.11469287	      1.25835085	      0.06595982	     -0.27393210	      0.80095941	      0.12500305	     -0.17778397	      1.27725327	      0.08698361	     -0.21367630	      1.00396407	      1.41556573	     -0.18500666	      1.12704289	      1.33186281	     -0.13811903	      1.12954152	      1.33459318	     -0.24335341	      1.11158967	      1.34236896	     -0.18788791	      1.18233907	      1.17364585	     -0.20242983	      1.08057046	      0.54495502	      0.00413498	      1.32764804	      0.56873506	     -0.25646189	      1.10533178	      0.60914856	     -0.05884154	      1.25643110	      0.60786349	     -0.30555972	      1.09133232	      0.52359641	     -0.08332185	      1.25017130	      0.52085423	     -0.30276263	      0.84703833	      0.22903667	     -0.02001576	      1.26184905	      0.20305949	     -0.36719713	      0.82762790	      0.20468980	     -0.09572965	      1.25027883	      0.16711192	     -0.29521918	      0.87942940	      0.04050956	     -0.13481352	      1.39702630	      0.04152851	     -0.26156068
      0.79167000	      1.17742969	      0.93628235	     -0.19723058	      0.24739806	      7.53354005	     -3.28143093	    -12.30003403	     -7.30624591	      8.62615364	    -21.44202915	      7.12993364	     13.30659080	      9.10247493	      5.90483580	     -3.14982783	     -8.80673909	     -2.00215485	     -7.48215159	      7.74951859	      0.00000000	      0.00000000	      0.00000000	      0.00000000	      1.21706277	      0.92095597	     -0.07846138	      1.23277203	      0.95857876	     -0.31310535	      1.19043317	      0.93624076	     -0.19649149	      1.03702672	      0.98744284	     -0.16789925	      1.04741479	      0.99754723	     -0.25264471	      1.10762275	      0.86534236	     -0.13214009	      1.11642797	      0.88571642	     -0.28591058	      1.11202536	      0.87552939	     -0.20902533	      1.04724943	      0.44060822	     -0.06554723	      1.00690092	      0.45671812	     -0.16887105	      1.13048187	      0.53835824	     -0.00238641	      1.14694959	      0.60149206	     -0.07279019	      1.11963513	      0.51827426	     -0.09218749	      0.77948506	      0.11759853	     -0.07931051	      0.79802308	      0.12154720	     -0.14862911	      0.88242889	      0.20956366	      0.00332435	      0.84616920	      0.19453753	     -0.06741701	      1.01677411	      0.45421895	     -0.13759714	      0.79657540	      0.12333155	     -0.12463617	      0.88679592	      0.03281019	     -0.10685993	      1.23840701	      0.46190032	     -0.33318417	      1.20767511	      0.46542137	     -0.22693003	      1.34917329	      0.59520709	     -0.24869745	      1.28064531	      0.63901789	     -0.30321527	      1.27968566	      0.55206334	     -0.30319992	      1.25780124	      0.06639036	     -0.29846586	      1.27018283	      0.08416284	     -0.23499457	      1.27696762	      0.20599453	     -0.38285771	      1.25528836	      0.16730912	     -0.31466086	      1.20531785	      0.47634703	     -0.26849905	      1.27259768	      0.08463064	     -0.25532244	      1.39264120	      0.05063014	     -0.27503373	      1.13720774	      1.33900703	     -0.13854163	      1.14130414	      1.34332515	     -0.24670846	      1.00524156	      1.40698660	     -0.18562007	      1.12166012	      1.34796824	     -0.19012346	      1.21325704	      1.18983227	     -0.20470621	      1.11277200	      0.88485700	     -0.20315500	      1.10360800	      0.85303300	     -0.13852600	      1.11424400	      0.87039400	     -0.28757100	      1.01852700	      0.45629000	     -0.13112700	      1.20882700	      0.46110200	     -0.26701200	      0.79018800	      0.11786500	     -0.14900900	      1.27389700	      0.07118500	     -0.23839500	      1.19438500	      0.94803900	     -0.19689400	      1.18586300	      0.93412800	     -0.07747400	      1.20290700	      0.96194900	     -0.31631400	      1.00340400	      0.98641700	     -0.17277300	      1.01479600	      0.99067200	     -0.25936300	      1.02495600	      0.45599600	     -0.07298200	      1.22065400	      0.46098300	     -0.32379300	      1.01868500	      0.44990700	     -0.18232600	      1.18323900	      0.44217200	     -0.21847600	      0.77408800	      0.12685200	     -0.11351200	      1.25863600	      0.06603100	     -0.27391300	      0.80628700	      0.12850100	     -0.17629200	      1.27742500	      0.08698100	     -0.21357900	      1.01117900	      1.41613000	     -0.18648700	      1.13388900	      1.33348200	     -0.13948700	      1.13666700	      1.33598800	     -0.24462500	      1.11877500	      1.34366000	     -0.18917300	      1.19005200	      1.17536500	     -0.20324400	      1.08912400	      0.54572900	      0.00473300	      1.33272600	      0.56820000	     -0.25572000	      1.11402100	      0.60939100	     -0.05838000	      1.26252500	      0.60793600	     -0.30507700	      1.10166400	      0.52331400	     -0.08201700	      1.25519800	      0.52142200	     -0.30250600	      0.85226800	      0.23367400	     -0.01918800	      1.26421800	      0.20297700	     -0.36744900	      0.83305300	      0.20927900	     -0.09442700	      1.25201300	      0.16675300	     -0.29525200	      0.88072500	      0.04056000	     -0.13466700	      1.39741800	      0.04130400	     -0.26127100	     53.29321304	    287.43562899	      0.00670262	      0.88408002	      0.00000000	     -0.13078937	    -27.40450297	    331.09080573	      5.62272284	      1.28665259	      0.00000000	     -0.23530196	      0.00000000	      0.61881305	      0.00000000	      0.00000000	      1.59902588	      0.00000000	      1.11277246	      0.88485658	     -0.20315534	      1.10360765	      0.85303307	     -0.13852565	      1.11424410	      0.87039429	     -0.28757074	      1.01852679	      0.45629030	     -0.13112724	      1.20882750	      0.46110213	     -0.26701203	      0.79018754	      0.11786523	     -0.14900869	      1.27389717	      0.07118475	     -0.23839504	      1.19438493	      0.94803858	     -0.19689411	      1.18586266	      0.93412822	     -0.07747445	      1.20290720	      0.96194899	     -0.31631377	      1.00340390	      0.98641741	     -0.17277326	      1.01479578	      0.99067181	     -0.25936285	      1.02495635	      0.45599580	     -0.07298238	      1.22065377	      0.46098298	     -0.32379338	      1.01868498	      0.44990706	     -0.18232602	      1.18323922	      0.44217229	     -0.21847625	      0.77408773	      0.12685242	     -0.11351185	      1.25863576	      0.06603114	     -0.27391300	      0.80628663	      0.12850101	     -0.17629209	      1.27742505	      0.08698118	     -0.21357931	      1.01117897	      1.41613030	     -0.18648694	      1.13388860	      1.33348191	     -0.13948719	      1.13666654	      1.33598781	     -0.24462502	      1.11877453	      1.34366024	     -0.18917273	      1.19005167	      1.17536461	     -0.20324390	      1.08912420	      0.54572922	      0.00473298	      1.33272612	      0.56820047	     -0.25572038	      1.11402106	      0.60939121	     -0.05837956	      1.26252520	      0.60793555	     -0.30507654	      1.10166430	      0.52331376	     -0.08201722	      1.25519836	      0.52142233	     -0.30250573	      0.85226762	      0.23367378	     -0.01918773	      1.26421785	      0.20297652	     -0.36744937	      0.83305317	      0.20927872	     -0.09442717	      1.25201297	      0.16675343	     -0.29525217	      0.88072491	      0.04056045	     -0.13466701	      1.39741814	      0.04130432	     -0.26127139
